<?xml version="1.0" encoding="utf-8" ?>
<svg baseProfile="full" height="600px" version="1.1" width="600px" xmlns="http://www.w3.org/2000/svg" xmlns:ev="http://www.w3.org/2001/xml-events" xmlns:xlink="http://www.w3.org/1999/xlink"><defs /><circle cx="500.0" cy="300.0" fill="white" r="8" stroke="black" stroke-width="2" /><circle cx="400.0" cy="473.2050807568877" fill="white" r="8" stroke="black" stroke-width="2" /><circle cx="200.00000000000006" cy="473.20508075688775" fill="white" r="8" stroke="black" stroke-width="2" /><circle cx="100.0" cy="300.0" fill="white" r="8" stroke="black" stroke-width="2" /><circle cx="199.99999999999991" cy="126.79491924311233" fill="white" r="8" stroke="black" stroke-width="2" /><circle cx="400.0" cy="126.79491924311228" fill="white" r="8" stroke="black" stroke-width="2" /><circle cx="430.0" cy="300.0" fill="white" r="8" stroke="black" stroke-width="2" /><circle cx="365.0" cy="412.583302491977" fill="white" r="8" stroke="black" stroke-width="2" /><circle cx="235.00000000000003" cy="412.58330249197707" fill="white" r="8" stroke="black" stroke-width="2" /><circle cx="170.0" cy="300.0" fill="white" r="8" stroke="black" stroke-width="2" /><circle cx="234.99999999999994" cy="187.416697508023" fill="white" r="8" stroke="black" stroke-width="2" /><circle cx="365.0" cy="187.416697508023" fill="white" r="8" stroke="black" stroke-width="2" /><circle cx="360.0" cy="300.0" fill="white" r="8" stroke="black" stroke-width="2" /><circle cx="330.0" cy="351.9615242270663" fill="white" r="8" stroke="black" stroke-width="2" /><circle cx="270.0" cy="351.9615242270663" fill="white" r="8" stroke="black" stroke-width="2" /><circle cx="240.0" cy="300.0" fill="white" r="8" stroke="black" stroke-width="2" /><circle cx="270.0" cy="248.03847577293368" fill="white" r="8" stroke="black" stroke-width="2" /><circle cx="330.0" cy="248.03847577293368" fill="white" r="8" stroke="black" stroke-width="2" /><line stroke="black" stroke-width="2" x1="500.0" x2="400.0" y1="300.0" y2="473.2050807568877" /><text alignment-baseline="middle" fill="blue" font-size="14px" text-anchor="middle" x="437.0096189432334" y="379.10254037844385">2</text><line stroke="black" stroke-width="2" x1="400.0" x2="200.00000000000006" y1="473.2050807568877" y2="473.20508075688775" /><text alignment-baseline="middle" fill="blue" font-size="14px" text-anchor="middle" x="300.0" y="458.2050807568877">1</text><line stroke="black" stroke-width="2" x1="200.00000000000006" x2="100.0" y1="473.20508075688775" y2="300.0" /><text alignment-baseline="middle" fill="blue" font-size="14px" text-anchor="middle" x="162.9903810567666" y="379.1025403784439">2</text><line stroke="black" stroke-width="2" x1="100.0" x2="199.99999999999991" y1="300.0" y2="126.79491924311233" /><text alignment-baseline="middle" fill="blue" font-size="14px" text-anchor="middle" x="162.99038105676652" y="220.89745962155615">1</text><line stroke="black" stroke-width="2" x1="199.99999999999991" x2="400.0" y1="126.79491924311233" y2="126.79491924311228" /><text alignment-baseline="middle" fill="blue" font-size="14px" text-anchor="middle" x="299.99999999999994" y="141.7949192431123">1</text><line stroke="black" stroke-width="2" x1="400.0" x2="500.0" y1="126.79491924311228" y2="300.0" /><text alignment-baseline="middle" fill="blue" font-size="14px" text-anchor="middle" x="437.0096189432334" y="220.89745962155615">3</text><line stroke="black" stroke-width="2" x1="500.0" x2="430.0" y1="300.0" y2="300.0" /><text alignment-baseline="middle" fill="blue" font-size="14px" text-anchor="middle" x="465.0" y="285.0">1</text><line stroke="black" stroke-width="2" x1="200.00000000000006" x2="235.00000000000003" y1="473.20508075688775" y2="412.58330249197707" /><text alignment-baseline="middle" fill="blue" font-size="14px" text-anchor="middle" x="230.49038105676664" y="450.39419162443244">1</text><line stroke="black" stroke-width="2" x1="199.99999999999991" x2="234.99999999999994" y1="126.79491924311233" y2="187.416697508023" /><text alignment-baseline="middle" fill="blue" font-size="14px" text-anchor="middle" x="204.50961894323336" y="164.60580837556768">1</text><line stroke="black" stroke-width="2" x1="430.0" x2="365.0" y1="300.0" y2="412.583302491977" /><text alignment-baseline="middle" fill="blue" font-size="14px" text-anchor="middle" x="384.5096189432334" y="348.79165124598853">5</text><line stroke="black" stroke-width="2" x1="365.0" x2="235.00000000000003" y1="412.583302491977" y2="412.58330249197707" /><text alignment-baseline="middle" fill="blue" font-size="14px" text-anchor="middle" x="300.0" y="397.58330249197707">6</text><line stroke="black" stroke-width="2" x1="235.00000000000003" x2="170.0" y1="412.58330249197707" y2="300.0" /><text alignment-baseline="middle" fill="blue" font-size="14px" text-anchor="middle" x="215.49038105676658" y="348.79165124598853">4</text><line stroke="black" stroke-width="2" x1="170.0" x2="234.99999999999994" y1="300.0" y2="187.416697508023" /><text alignment-baseline="middle" fill="blue" font-size="14px" text-anchor="middle" x="215.49038105676655" y="251.2083487540115">5</text><line stroke="black" stroke-width="2" x1="234.99999999999994" x2="365.0" y1="187.416697508023" y2="187.416697508023" /><text alignment-baseline="middle" fill="blue" font-size="14px" text-anchor="middle" x="300.0" y="202.416697508023">6</text><line stroke="black" stroke-width="2" x1="365.0" x2="430.0" y1="187.416697508023" y2="300.0" /><text alignment-baseline="middle" fill="blue" font-size="14px" text-anchor="middle" x="384.5096189432334" y="251.2083487540115">4</text><line stroke="black" stroke-width="2" x1="365.0" x2="330.0" y1="412.583302491977" y2="351.9615242270663" /><text alignment-baseline="middle" fill="blue" font-size="14px" text-anchor="middle" x="360.4903810567666" y="374.7724133595217">1</text><line stroke="black" stroke-width="2" x1="170.0" x2="240.0" y1="300.0" y2="300.0" /><text alignment-baseline="middle" fill="blue" font-size="14px" text-anchor="middle" x="205.0" y="315.0">1</text><line stroke="black" stroke-width="2" x1="365.0" x2="330.0" y1="187.416697508023" y2="248.03847577293368" /><text alignment-baseline="middle" fill="blue" font-size="14px" text-anchor="middle" x="334.5096189432334" y="210.22758664047834">1</text><line stroke="black" stroke-width="2" x1="360.0" x2="330.0" y1="300.0" y2="351.9615242270663" /><text alignment-baseline="middle" fill="blue" font-size="14px" text-anchor="middle" x="332.0096189432334" y="318.48076211353316">8</text><line stroke="black" stroke-width="2" x1="330.0" x2="270.0" y1="351.9615242270663" y2="351.9615242270663" /><text alignment-baseline="middle" fill="blue" font-size="14px" text-anchor="middle" x="300.0" y="336.9615242270663">8</text><line stroke="black" stroke-width="2" x1="270.0" x2="240.0" y1="351.9615242270663" y2="300.0" /><text alignment-baseline="middle" fill="blue" font-size="14px" text-anchor="middle" x="267.9903810567666" y="318.48076211353316">9</text><line stroke="black" stroke-width="2" x1="240.0" x2="270.0" y1="300.0" y2="248.03847577293368" /><text alignment-baseline="middle" fill="blue" font-size="14px" text-anchor="middle" x="267.9903810567666" y="281.51923788646684">8</text><line stroke="black" stroke-width="2" x1="270.0" x2="330.0" y1="248.03847577293368" y2="248.03847577293368" /><text alignment-baseline="middle" fill="blue" font-size="14px" text-anchor="middle" x="300.0" y="263.0384757729337">8</text><line stroke="black" stroke-width="2" x1="330.0" x2="360.0" y1="248.03847577293368" y2="300.0" /><text alignment-baseline="middle" fill="blue" font-size="14px" text-anchor="middle" x="332.0096189432334" y="281.51923788646684">9</text></svg>